<mxfile host="Electron" modified="2024-06-25T16:56:56.719Z" agent="Mozilla/5.0 (Windows NT 10.0; Win64; x64) AppleWebKit/537.36 (KHTML, like Gecko) draw.io/21.6.1 Chrome/112.0.5615.204 Electron/24.6.1 Safari/537.36" etag="36FMKNJHtajmjBl9m1bg" version="21.6.1" type="device">
  <diagram id="C5RBs43oDa-KdzZeNtuy" name="Page-1">
    <mxGraphModel dx="780" dy="496" grid="1" gridSize="10" guides="1" tooltips="1" connect="1" arrows="1" fold="1" page="1" pageScale="1" pageWidth="827" pageHeight="1169" math="0" shadow="0">
      <root>
        <mxCell id="WIyWlLk6GJQsqaUBKTNV-0" />
        <mxCell id="WIyWlLk6GJQsqaUBKTNV-1" parent="WIyWlLk6GJQsqaUBKTNV-0" />
        <mxCell id="WIyWlLk6GJQsqaUBKTNV-2" value="" style="rounded=0;html=1;jettySize=auto;orthogonalLoop=1;fontSize=13;endArrow=block;endFill=0;endSize=8;strokeWidth=1;shadow=0;labelBackgroundColor=none;edgeStyle=orthogonalEdgeStyle;" parent="WIyWlLk6GJQsqaUBKTNV-1" source="WIyWlLk6GJQsqaUBKTNV-3" target="WIyWlLk6GJQsqaUBKTNV-6" edge="1">
          <mxGeometry relative="1" as="geometry" />
        </mxCell>
        <mxCell id="WIyWlLk6GJQsqaUBKTNV-3" value="Git Hook&lt;br style=&quot;font-size: 13px;&quot;&gt;pre-push" style="rounded=1;whiteSpace=wrap;html=1;fontSize=13;glass=0;strokeWidth=1;shadow=0;fillColor=#ffe6cc;strokeColor=#d79b00;" parent="WIyWlLk6GJQsqaUBKTNV-1" vertex="1">
          <mxGeometry x="80" y="360" width="120" height="40" as="geometry" />
        </mxCell>
        <mxCell id="WIyWlLk6GJQsqaUBKTNV-4" value="Yes" style="rounded=0;html=1;jettySize=auto;orthogonalLoop=1;fontSize=13;endArrow=block;endFill=0;endSize=8;strokeWidth=1;shadow=0;labelBackgroundColor=none;edgeStyle=orthogonalEdgeStyle;exitX=0.5;exitY=1;exitDx=0;exitDy=0;entryX=0;entryY=0.5;entryDx=0;entryDy=0;" parent="WIyWlLk6GJQsqaUBKTNV-1" source="WIyWlLk6GJQsqaUBKTNV-6" target="WIyWlLk6GJQsqaUBKTNV-12" edge="1">
          <mxGeometry x="-0.7266" y="10" relative="1" as="geometry">
            <mxPoint as="offset" />
            <mxPoint x="380" y="665" as="targetPoint" />
            <Array as="points">
              <mxPoint x="140" y="620" />
            </Array>
          </mxGeometry>
        </mxCell>
        <mxCell id="WIyWlLk6GJQsqaUBKTNV-6" value="Modifications&lt;br style=&quot;font-size: 13px;&quot;&gt;by the pre-push script&lt;br style=&quot;font-size: 13px;&quot;&gt;already commited?" style="rhombus;whiteSpace=wrap;html=1;shadow=0;fontFamily=Helvetica;fontSize=13;align=center;strokeWidth=1;spacing=6;spacingTop=-4;perimeterSpacing=1;rounded=1;fillColor=#ffe6cc;strokeColor=#d79b00;" parent="WIyWlLk6GJQsqaUBKTNV-1" vertex="1">
          <mxGeometry x="40" y="440" width="200" height="120" as="geometry" />
        </mxCell>
        <mxCell id="WIyWlLk6GJQsqaUBKTNV-7" value="Execute &lt;br style=&quot;font-size: 13px;&quot;&gt;all python scripts in &lt;i&gt;scripts/*.py&lt;/i&gt;&lt;br style=&quot;font-size: 13px;&quot;&gt;&lt;br style=&quot;font-size: 13px;&quot;&gt;These scripts apply standard modifications to the Power BI Report like default settings (filters, theming, etc.)" style="rounded=1;whiteSpace=wrap;html=1;fontSize=13;glass=0;strokeWidth=3;shadow=0;fillColor=#ffe6cc;strokeColor=#d79b00;" parent="WIyWlLk6GJQsqaUBKTNV-1" vertex="1">
          <mxGeometry x="400" y="400" width="140" height="200" as="geometry" />
        </mxCell>
        <mxCell id="WIyWlLk6GJQsqaUBKTNV-8" value="No" style="rounded=0;html=1;jettySize=auto;orthogonalLoop=1;fontSize=11;endArrow=block;endFill=0;endSize=8;strokeWidth=1;shadow=0;labelBackgroundColor=none;edgeStyle=orthogonalEdgeStyle;" parent="WIyWlLk6GJQsqaUBKTNV-1" edge="1">
          <mxGeometry x="0.3333" y="20" relative="1" as="geometry">
            <mxPoint as="offset" />
            <mxPoint x="430" y="565" as="targetPoint" />
          </mxGeometry>
        </mxCell>
        <mxCell id="WIyWlLk6GJQsqaUBKTNV-12" value="&lt;b&gt;exit 0&lt;/b&gt;&lt;br style=&quot;font-size: 13px;&quot;&gt;&lt;i style=&quot;font-size: 13px;&quot;&gt;git push&lt;/i&gt; &lt;br&gt;is executed" style="rounded=1;whiteSpace=wrap;html=1;fontSize=13;glass=0;strokeWidth=1;shadow=0;fillColor=#ffe6cc;strokeColor=#d79b00;" parent="WIyWlLk6GJQsqaUBKTNV-1" vertex="1">
          <mxGeometry x="220" y="580" width="130" height="80" as="geometry" />
        </mxCell>
        <mxCell id="UhIy0ESHgk2GWkVKbJpG-0" value="JSON files &lt;br style=&quot;font-size: 13px;&quot;&gt;(PBIR)&lt;br style=&quot;font-size: 13px;&quot;&gt;changed?" style="rhombus;whiteSpace=wrap;html=1;shadow=0;fontFamily=Helvetica;fontSize=13;align=center;strokeWidth=1;spacing=6;spacingTop=-4;perimeterSpacing=1;rounded=1;fillColor=#ffe6cc;strokeColor=#d79b00;" parent="WIyWlLk6GJQsqaUBKTNV-1" vertex="1">
          <mxGeometry x="560" y="460" width="160" height="80" as="geometry" />
        </mxCell>
        <mxCell id="UhIy0ESHgk2GWkVKbJpG-1" value="" style="rounded=0;html=1;jettySize=auto;orthogonalLoop=1;fontSize=13;endArrow=block;endFill=0;endSize=8;strokeWidth=1;shadow=0;labelBackgroundColor=none;edgeStyle=orthogonalEdgeStyle;exitX=1;exitY=0.5;exitDx=0;exitDy=0;" parent="WIyWlLk6GJQsqaUBKTNV-1" source="WIyWlLk6GJQsqaUBKTNV-7" target="UhIy0ESHgk2GWkVKbJpG-0" edge="1">
          <mxGeometry relative="1" as="geometry">
            <mxPoint x="240" y="435" as="sourcePoint" />
            <mxPoint x="200" y="484" as="targetPoint" />
          </mxGeometry>
        </mxCell>
        <mxCell id="UhIy0ESHgk2GWkVKbJpG-2" value="&lt;i style=&quot;font-size: 12px;&quot;&gt;git stash pbir/&lt;/i&gt;" style="rounded=1;whiteSpace=wrap;html=1;fontSize=12;glass=0;strokeWidth=1;shadow=0;fillColor=#ffe6cc;strokeColor=#d79b00;" parent="WIyWlLk6GJQsqaUBKTNV-1" vertex="1">
          <mxGeometry x="280" y="470" width="80" height="60" as="geometry" />
        </mxCell>
        <mxCell id="UhIy0ESHgk2GWkVKbJpG-3" value="" style="rounded=0;html=1;jettySize=auto;orthogonalLoop=1;fontSize=13;endArrow=block;endFill=0;endSize=8;strokeWidth=1;shadow=0;labelBackgroundColor=none;edgeStyle=orthogonalEdgeStyle;exitX=1;exitY=0.5;exitDx=0;exitDy=0;" parent="WIyWlLk6GJQsqaUBKTNV-1" source="UhIy0ESHgk2GWkVKbJpG-2" target="WIyWlLk6GJQsqaUBKTNV-7" edge="1">
          <mxGeometry relative="1" as="geometry">
            <mxPoint x="240" y="435" as="sourcePoint" />
            <mxPoint x="200" y="484" as="targetPoint" />
          </mxGeometry>
        </mxCell>
        <mxCell id="UhIy0ESHgk2GWkVKbJpG-4" value="No" style="rounded=0;html=1;jettySize=auto;orthogonalLoop=1;fontSize=13;endArrow=block;endFill=0;endSize=8;strokeWidth=1;shadow=0;labelBackgroundColor=none;edgeStyle=orthogonalEdgeStyle;exitX=1;exitY=0.5;exitDx=0;exitDy=0;entryX=0;entryY=0.5;entryDx=0;entryDy=0;" parent="WIyWlLk6GJQsqaUBKTNV-1" source="WIyWlLk6GJQsqaUBKTNV-6" target="UhIy0ESHgk2GWkVKbJpG-2" edge="1">
          <mxGeometry x="-0.5385" y="10" relative="1" as="geometry">
            <mxPoint as="offset" />
            <mxPoint x="240" y="685" as="sourcePoint" />
            <mxPoint x="240" y="745" as="targetPoint" />
          </mxGeometry>
        </mxCell>
        <mxCell id="UhIy0ESHgk2GWkVKbJpG-5" value="No" style="rounded=0;html=1;jettySize=auto;orthogonalLoop=1;fontSize=13;endArrow=block;endFill=0;endSize=8;strokeWidth=1;shadow=0;labelBackgroundColor=none;edgeStyle=orthogonalEdgeStyle;exitX=0.5;exitY=1;exitDx=0;exitDy=0;entryX=1;entryY=0.5;entryDx=0;entryDy=0;" parent="WIyWlLk6GJQsqaUBKTNV-1" source="UhIy0ESHgk2GWkVKbJpG-0" target="WIyWlLk6GJQsqaUBKTNV-12" edge="1">
          <mxGeometry x="-0.8237" y="15" relative="1" as="geometry">
            <mxPoint as="offset" />
            <mxPoint x="747.4000000000001" y="605.67" as="sourcePoint" />
            <mxPoint x="570" y="695" as="targetPoint" />
          </mxGeometry>
        </mxCell>
        <mxCell id="UhIy0ESHgk2GWkVKbJpG-6" value="git add and commit &lt;br style=&quot;font-size: 13px;&quot;&gt;(folder pbir/*)" style="rounded=1;whiteSpace=wrap;html=1;fontSize=13;glass=0;strokeWidth=1;shadow=0;align=center;fillColor=#ffe6cc;strokeColor=#d79b00;" parent="WIyWlLk6GJQsqaUBKTNV-1" vertex="1">
          <mxGeometry x="560" y="320" width="160" height="60" as="geometry" />
        </mxCell>
        <mxCell id="UhIy0ESHgk2GWkVKbJpG-7" value="&lt;b&gt;exit 1&lt;/b&gt;&lt;br style=&quot;font-size: 13px;&quot;&gt;&lt;i style=&quot;font-size: 13px;&quot;&gt;git push &lt;br&gt;&lt;/i&gt;&lt;span style=&quot;font-size: 13px;&quot;&gt;is &lt;b&gt;not &lt;/b&gt;executed.&amp;nbsp;&lt;br&gt;&lt;/span&gt;Developer has the chance to verify the changes before pushing them to the remote repo" style="rounded=1;whiteSpace=wrap;html=1;fontSize=13;glass=0;strokeWidth=1;shadow=0;align=center;fillColor=#ffe6cc;strokeColor=#d79b00;" parent="WIyWlLk6GJQsqaUBKTNV-1" vertex="1">
          <mxGeometry x="560" y="120" width="160" height="120" as="geometry" />
        </mxCell>
        <mxCell id="UhIy0ESHgk2GWkVKbJpG-8" value="Run&lt;br style=&quot;font-size: 13px;&quot;&gt;git push" style="rounded=1;whiteSpace=wrap;html=1;fontSize=13;glass=0;strokeWidth=1;shadow=0;fillColor=#d5e8d4;strokeColor=#82b366;" parent="WIyWlLk6GJQsqaUBKTNV-1" vertex="1">
          <mxGeometry x="80" y="280" width="120" height="40" as="geometry" />
        </mxCell>
        <mxCell id="UhIy0ESHgk2GWkVKbJpG-11" value="Everthing&amp;nbsp;OK?" style="rhombus;whiteSpace=wrap;html=1;shadow=0;fontFamily=Helvetica;fontSize=13;align=center;strokeWidth=1;spacing=6;spacingTop=-4;perimeterSpacing=1;rounded=1;fillColor=#d5e8d4;strokeColor=#82b366;" parent="WIyWlLk6GJQsqaUBKTNV-1" vertex="1">
          <mxGeometry x="310" y="140" width="150" height="80" as="geometry" />
        </mxCell>
        <mxCell id="UhIy0ESHgk2GWkVKbJpG-12" value="Develop&amp;nbsp;&lt;br style=&quot;font-size: 13px;&quot;&gt;Power BI Report&lt;br style=&quot;font-size: 13px;&quot;&gt;(PBIR format)&lt;br style=&quot;font-size: 13px;&quot;&gt;Add and commit to Git repo" style="rounded=1;whiteSpace=wrap;html=1;fontSize=13;glass=0;strokeWidth=1;shadow=0;align=center;fillColor=#d5e8d4;strokeColor=#82b366;" parent="WIyWlLk6GJQsqaUBKTNV-1" vertex="1">
          <mxGeometry x="80" y="120" width="120" height="120" as="geometry" />
        </mxCell>
        <mxCell id="UhIy0ESHgk2GWkVKbJpG-14" value="No" style="rounded=0;html=1;jettySize=auto;orthogonalLoop=1;fontSize=13;endArrow=block;endFill=0;endSize=8;strokeWidth=1;shadow=0;labelBackgroundColor=none;edgeStyle=orthogonalEdgeStyle;exitX=0;exitY=0.5;exitDx=0;exitDy=0;entryX=1;entryY=0.5;entryDx=0;entryDy=0;" parent="WIyWlLk6GJQsqaUBKTNV-1" source="UhIy0ESHgk2GWkVKbJpG-11" target="UhIy0ESHgk2GWkVKbJpG-12" edge="1">
          <mxGeometry x="-0.1009" y="10" relative="1" as="geometry">
            <mxPoint as="offset" />
            <mxPoint x="260" y="230" as="sourcePoint" />
            <mxPoint x="200" y="290" as="targetPoint" />
          </mxGeometry>
        </mxCell>
        <mxCell id="UhIy0ESHgk2GWkVKbJpG-15" value="" style="rounded=0;html=1;jettySize=auto;orthogonalLoop=1;fontSize=13;endArrow=block;endFill=0;endSize=8;strokeWidth=1;shadow=0;labelBackgroundColor=none;edgeStyle=orthogonalEdgeStyle;exitX=0;exitY=0.5;exitDx=0;exitDy=0;" parent="WIyWlLk6GJQsqaUBKTNV-1" source="UhIy0ESHgk2GWkVKbJpG-7" target="UhIy0ESHgk2GWkVKbJpG-11" edge="1">
          <mxGeometry relative="1" as="geometry">
            <mxPoint x="150" y="330" as="sourcePoint" />
            <mxPoint x="150" y="390" as="targetPoint" />
          </mxGeometry>
        </mxCell>
        <mxCell id="UhIy0ESHgk2GWkVKbJpG-16" value="Yes" style="rounded=0;html=1;jettySize=auto;orthogonalLoop=1;fontSize=13;endArrow=block;endFill=0;endSize=8;strokeWidth=1;shadow=0;labelBackgroundColor=none;edgeStyle=orthogonalEdgeStyle;exitX=0.546;exitY=0.992;exitDx=0;exitDy=0;entryX=1;entryY=0.5;entryDx=0;entryDy=0;exitPerimeter=0;" parent="WIyWlLk6GJQsqaUBKTNV-1" source="UhIy0ESHgk2GWkVKbJpG-11" target="UhIy0ESHgk2GWkVKbJpG-8" edge="1">
          <mxGeometry x="-0.7817" y="-12" relative="1" as="geometry">
            <mxPoint as="offset" />
            <mxPoint x="364" y="170" as="sourcePoint" />
            <mxPoint x="220" y="170" as="targetPoint" />
          </mxGeometry>
        </mxCell>
        <mxCell id="UhIy0ESHgk2GWkVKbJpG-18" value="" style="rounded=0;html=1;jettySize=auto;orthogonalLoop=1;fontSize=13;endArrow=block;endFill=0;endSize=8;strokeWidth=1;shadow=0;labelBackgroundColor=none;edgeStyle=orthogonalEdgeStyle;exitX=0.5;exitY=1;exitDx=0;exitDy=0;" parent="WIyWlLk6GJQsqaUBKTNV-1" source="UhIy0ESHgk2GWkVKbJpG-8" target="WIyWlLk6GJQsqaUBKTNV-3" edge="1">
          <mxGeometry relative="1" as="geometry">
            <mxPoint x="150" y="440" as="sourcePoint" />
            <mxPoint x="150" y="484" as="targetPoint" />
          </mxGeometry>
        </mxCell>
        <mxCell id="UhIy0ESHgk2GWkVKbJpG-19" value="" style="rounded=0;html=1;jettySize=auto;orthogonalLoop=1;fontSize=13;endArrow=block;endFill=0;endSize=8;strokeWidth=1;shadow=0;labelBackgroundColor=none;edgeStyle=orthogonalEdgeStyle;exitX=0.5;exitY=1;exitDx=0;exitDy=0;" parent="WIyWlLk6GJQsqaUBKTNV-1" source="UhIy0ESHgk2GWkVKbJpG-12" target="UhIy0ESHgk2GWkVKbJpG-8" edge="1">
          <mxGeometry relative="1" as="geometry">
            <mxPoint x="150" y="330" as="sourcePoint" />
            <mxPoint x="150" y="380" as="targetPoint" />
          </mxGeometry>
        </mxCell>
        <mxCell id="UhIy0ESHgk2GWkVKbJpG-21" value="Yes" style="rounded=0;html=1;jettySize=auto;orthogonalLoop=1;fontSize=13;endArrow=block;endFill=0;endSize=8;strokeWidth=1;shadow=0;labelBackgroundColor=none;edgeStyle=orthogonalEdgeStyle;exitX=0.5;exitY=0;exitDx=0;exitDy=0;entryX=0.5;entryY=1;entryDx=0;entryDy=0;" parent="WIyWlLk6GJQsqaUBKTNV-1" source="UhIy0ESHgk2GWkVKbJpG-0" target="UhIy0ESHgk2GWkVKbJpG-6" edge="1">
          <mxGeometry x="-0.4062" y="-15" relative="1" as="geometry">
            <mxPoint as="offset" />
            <mxPoint x="251" y="510" as="sourcePoint" />
            <mxPoint x="290" y="510" as="targetPoint" />
          </mxGeometry>
        </mxCell>
        <mxCell id="UhIy0ESHgk2GWkVKbJpG-22" value="" style="rounded=0;html=1;jettySize=auto;orthogonalLoop=1;fontSize=13;endArrow=block;endFill=0;endSize=8;strokeWidth=1;shadow=0;labelBackgroundColor=none;edgeStyle=orthogonalEdgeStyle;exitX=0.5;exitY=0;exitDx=0;exitDy=0;entryX=0.5;entryY=1;entryDx=0;entryDy=0;" parent="WIyWlLk6GJQsqaUBKTNV-1" source="UhIy0ESHgk2GWkVKbJpG-6" target="UhIy0ESHgk2GWkVKbJpG-7" edge="1">
          <mxGeometry relative="1" as="geometry">
            <mxPoint x="650" y="210" as="sourcePoint" />
            <mxPoint x="471" y="190" as="targetPoint" />
          </mxGeometry>
        </mxCell>
        <mxCell id="UhIy0ESHgk2GWkVKbJpG-23" value="Automated tasks (Git Hook)" style="rounded=1;whiteSpace=wrap;html=1;fillColor=#ffe6cc;strokeColor=#d79b00;dashed=1;fontSize=13;" parent="WIyWlLk6GJQsqaUBKTNV-1" vertex="1">
          <mxGeometry x="500" y="70" width="220" height="20" as="geometry" />
        </mxCell>
        <mxCell id="UhIy0ESHgk2GWkVKbJpG-24" value="Manual tasks by Power BI developer" style="rounded=1;whiteSpace=wrap;html=1;fillColor=#d5e8d4;strokeColor=#82b366;dashed=1;fontSize=13;" parent="WIyWlLk6GJQsqaUBKTNV-1" vertex="1">
          <mxGeometry x="500" y="40" width="220" height="20" as="geometry" />
        </mxCell>
        <mxCell id="8OWUfBS61h2dfA3MAdGp-0" value="&lt;b style=&quot;font-size: 13px;&quot;&gt;START&lt;/b&gt;&lt;br style=&quot;font-size: 13px;&quot;&gt;" style="rounded=1;whiteSpace=wrap;html=1;fontSize=13;glass=0;strokeWidth=1;shadow=0;align=center;fillColor=#d5e8d4;strokeColor=#82b366;" parent="WIyWlLk6GJQsqaUBKTNV-1" vertex="1">
          <mxGeometry x="80" y="40" width="120" height="40" as="geometry" />
        </mxCell>
        <mxCell id="8OWUfBS61h2dfA3MAdGp-3" value="" style="rounded=0;html=1;jettySize=auto;orthogonalLoop=1;fontSize=13;endArrow=block;endFill=0;endSize=8;strokeWidth=1;shadow=0;labelBackgroundColor=none;edgeStyle=orthogonalEdgeStyle;exitX=0.5;exitY=1;exitDx=0;exitDy=0;entryX=0.5;entryY=0;entryDx=0;entryDy=0;" parent="WIyWlLk6GJQsqaUBKTNV-1" source="8OWUfBS61h2dfA3MAdGp-0" target="UhIy0ESHgk2GWkVKbJpG-12" edge="1">
          <mxGeometry relative="1" as="geometry">
            <mxPoint x="150" y="250" as="sourcePoint" />
            <mxPoint x="140" y="110" as="targetPoint" />
          </mxGeometry>
        </mxCell>
      </root>
    </mxGraphModel>
  </diagram>
</mxfile>
